# xmcd
#
# Track frame offsets: 
#        150
#        15925
#        34459
#        48647
#        66930
#        86216
#        102743
#        120358
#        136552
#        150405
#
# Disc length: 2247 seconds
#
# Revision: 0
# Processed by: cddbd v1.5.2PL0 Copyright (c) Steve Scherf et al.
# Submitted via: ExactAudioCopy v1.3
#
DISCID=7d08c50a
DTITLE=Lonnie G - Porch Swing
DYEAR=2019
DGENRE=Blues Rock
TTITLE0=Don't Rain On Me
TTITLE1=My Baby Loves Me
TTITLE2=Sugar, Sugar Mama
TTITLE3=Porch Swing
TTITLE4=Long, Long Gone
TTITLE5=Washing Hands
TTITLE6=Break These Chains
TTITLE7=I Can't Help Myself
TTITLE8=Water Rising
TTITLE9=I Don't Know Why
EXTD=
EXTT0=
EXTT1=
EXTT2=
EXTT3=
EXTT4=
EXTT5=
EXTT6=
EXTT7=
EXTT8=
EXTT9=
PLAYORDER=
